<svg width="38" height="30" viewBox="0 0 38 30" fill="none" xmlns="http://www.w3.org/2000/svg">
<g clip-path="url(#clip0_27_43)">
<path d="M11.5102 18.942C10.3642 17.7488 10.6689 16.048 12.1896 15.1489L15.7468 13.0456L14.4736 11.7199L10.9163 13.8231C8.46179 15.2743 7.97086 18.0152 9.82046 19.941C11.6701 21.8668 15.1633 22.252 17.6178 20.8008L21.175 18.6976L19.9018 17.3718L16.3445 19.4751C14.8238 20.3742 12.6561 20.1352 11.5102 18.942ZM15.8265 17.4839L22.941 13.2775L21.6007 11.8819L14.4862 16.0884L15.8265 17.4839ZM19.8095 8.56503L16.2522 10.6683L17.5255 11.994L21.0827 9.89079C22.6035 8.99166 24.7711 9.23069 25.9171 10.4239C27.063 11.6171 26.7584 13.3178 25.2377 14.217L21.6804 16.3202L22.9537 17.646L26.5109 15.5427C28.9654 14.0915 29.4564 11.3507 27.6068 9.42484C25.7572 7.499 22.264 7.1138 19.8095 8.56503Z" fill="white"/>
</g>
<defs>
<clipPath id="clip0_27_43">
<rect width="24.7951" height="23.2191" fill="white" transform="matrix(0.860798 -0.508947 0.692687 0.721239 0 12.6191)"/>
</clipPath>
</defs>
</svg>
